<?xml version="1.0" encoding="UTF-8"?>
<svg xmlns="http://www.w3.org/2000/svg" viewBox="0 0 295 78">
  <rect x="0.0" y="0.0" width="65.0" height="2.5" fill="#023E5B"/>  <rect x="0.0" y="2.5" width="67.5" height="2.5" fill="#023E5B"/>  <rect x="0.0" y="5.0" width="67.5" height="2.5" fill="#023E5B"/>  <rect x="0.0" y="7.5" width="5.0" height="2.5" fill="#023E5B"/>  <rect x="60.0" y="7.5" width="7.5" height="2.5" fill="#023E5B"/>  <rect x="0.0" y="10.0" width="5.0" height="2.5" fill="#023E5B"/>  <rect x="7.5" y="10.0" width="7.5" height="2.5" fill="#023E5B"/>  <rect x="17.5" y="10.0" width="30.0" height="2.5" fill="#023E5B"/>  <rect x="50.0" y="10.0" width="7.5" height="2.5" fill="#023E5B"/>  <rect x="60.0" y="10.0" width="7.5" height="2.5" fill="#023E5B"/>  <rect x="0.0" y="12.5" width="5.0" height="2.5" fill="#023E5B"/>  <rect x="7.5" y="12.5" width="7.5" height="2.5" fill="#023E5B"/>  <rect x="17.5" y="12.5" width="30.0" height="2.5" fill="#023E5B"/>  <rect x="50.0" y="12.5" width="7.5" height="2.5" fill="#023E5B"/>  <rect x="60.0" y="12.5" width="7.5" height="2.5" fill="#023E5B"/>  <rect x="0.0" y="15.0" width="5.0" height="2.5" fill="#023E5B"/>  <rect x="7.5" y="15.0" width="7.5" height="2.5" fill="#023E5B"/>  <rect x="17.5" y="15.0" width="30.0" height="2.5" fill="#023E5B"/>  <rect x="50.0" y="15.0" width="7.5" height="2.5" fill="#023E5B"/>  <rect x="60.0" y="15.0" width="7.5" height="2.5" fill="#023E5B"/>  <rect x="0.0" y="17.5" width="5.0" height="2.5" fill="#023E5B"/>  <rect x="7.5" y="17.5" width="7.5" height="2.5" fill="#023E5B"/>  <rect x="17.5" y="17.5" width="30.0" height="2.5" fill="#023E5B"/>  <rect x="50.0" y="17.5" width="7.5" height="2.5" fill="#023E5B"/>  <rect x="60.0" y="17.5" width="7.5" height="2.5" fill="#023E5B"/>  <rect x="0.0" y="20.0" width="5.0" height="2.5" fill="#023E5B"/>  <rect x="7.5" y="20.0" width="7.5" height="2.5" fill="#023E5B"/>  <rect x="17.5" y="20.0" width="30.0" height="2.5" fill="#023E5B"/>  <rect x="50.0" y="20.0" width="7.5" height="2.5" fill="#023E5B"/>  <rect x="60.0" y="20.0" width="7.5" height="2.5" fill="#023E5B"/>  <rect x="0.0" y="22.5" width="5.0" height="2.5" fill="#023E5B"/>  <rect x="7.5" y="22.5" width="7.5" height="2.5" fill="#023E5B"/>  <rect x="17.5" y="22.5" width="30.0" height="2.5" fill="#023E5B"/>  <rect x="50.0" y="22.5" width="7.5" height="2.5" fill="#023E5B"/>  <rect x="60.0" y="22.5" width="7.5" height="2.5" fill="#023E5B"/>  <rect x="0.0" y="25.0" width="5.0" height="2.5" fill="#023E5B"/>  <rect x="7.5" y="25.0" width="7.5" height="2.5" fill="#023E5B"/>  <rect x="17.5" y="25.0" width="30.0" height="2.5" fill="#023E5B"/>  <rect x="50.0" y="25.0" width="7.5" height="2.5" fill="#023E5B"/>  <rect x="60.0" y="25.0" width="7.5" height="2.5" fill="#023E5B"/>  <rect x="0.0" y="27.5" width="5.0" height="2.5" fill="#023E5B"/>  <rect x="7.5" y="27.5" width="7.5" height="2.5" fill="#023E5B"/>  <rect x="17.5" y="27.5" width="12.5" height="2.5" fill="#023E5B"/>  <rect x="35.0" y="27.5" width="12.5" height="2.5" fill="#023E5B"/>  <rect x="50.0" y="27.5" width="7.5" height="2.5" fill="#023E5B"/>  <rect x="60.0" y="27.5" width="7.5" height="2.5" fill="#023E5B"/>  <rect x="0.0" y="30.0" width="5.0" height="2.5" fill="#023E5B"/>  <rect x="7.5" y="30.0" width="7.5" height="2.5" fill="#023E5B"/>  <rect x="17.5" y="30.0" width="5.0" height="2.5" fill="#023E5B"/>  <rect x="27.5" y="30.0" width="10.0" height="2.5" fill="#023E5B"/>  <rect x="42.5" y="30.0" width="5.0" height="2.5" fill="#023E5B"/>  <rect x="50.0" y="30.0" width="7.5" height="2.5" fill="#023E5B"/>  <rect x="60.0" y="30.0" width="7.5" height="2.5" fill="#023E5B"/>  <rect x="0.0" y="32.5" width="5.0" height="2.5" fill="#023E5B"/>  <rect x="7.5" y="32.5" width="5.0" height="2.5" fill="#023E5B"/>  <rect x="20.0" y="32.5" width="25.0" height="2.5" fill="#023E5B"/>  <rect x="52.5" y="32.5" width="5.0" height="2.5" fill="#023E5B"/>  <rect x="60.0" y="32.5" width="7.5" height="2.5" fill="#023E5B"/>  <rect x="0.0" y="35.0" width="5.0" height="2.5" fill="#023E5B"/>  <rect x="12.5" y="35.0" width="2.5" height="2.5" fill="#023E5B"/>  <rect x="17.5" y="35.0" width="30.0" height="2.5" fill="#023E5B"/>  <rect x="60.0" y="35.0" width="7.5" height="2.5" fill="#023E5B"/>  <rect x="0.0" y="37.5" width="5.0" height="2.5" fill="#023E5B"/>  <rect x="7.5" y="37.5" width="7.5" height="2.5" fill="#023E5B"/>  <rect x="17.5" y="37.5" width="30.0" height="2.5" fill="#023E5B"/>  <rect x="50.0" y="37.5" width="7.5" height="2.5" fill="#023E5B"/>  <rect x="60.0" y="37.5" width="7.5" height="2.5" fill="#023E5B"/>  <rect x="0.0" y="40.0" width="5.0" height="2.5" fill="#023E5B"/>  <rect x="7.5" y="40.0" width="7.5" height="2.5" fill="#023E5B"/>  <rect x="17.5" y="40.0" width="30.0" height="2.5" fill="#023E5B"/>  <rect x="50.0" y="40.0" width="7.5" height="2.5" fill="#023E5B"/>  <rect x="60.0" y="40.0" width="7.5" height="2.5" fill="#023E5B"/>  <rect x="0.0" y="42.5" width="5.0" height="2.5" fill="#023E5B"/>  <rect x="7.5" y="42.5" width="7.5" height="2.5" fill="#023E5B"/>  <rect x="17.5" y="42.5" width="30.0" height="2.5" fill="#023E5B"/>  <rect x="50.0" y="42.5" width="7.5" height="2.5" fill="#023E5B"/>  <rect x="60.0" y="42.5" width="7.5" height="2.5" fill="#023E5B"/>  <rect x="0.0" y="45.0" width="5.0" height="2.5" fill="#023E5B"/>  <rect x="7.5" y="45.0" width="7.5" height="2.5" fill="#023E5B"/>  <rect x="17.5" y="45.0" width="30.0" height="2.5" fill="#023E5B"/>  <rect x="50.0" y="45.0" width="7.5" height="2.5" fill="#023E5B"/>  <rect x="60.0" y="45.0" width="7.5" height="2.5" fill="#023E5B"/>  <rect x="0.0" y="47.5" width="5.0" height="2.5" fill="#023E5B"/>  <rect x="7.5" y="47.5" width="7.5" height="2.5" fill="#023E5B"/>  <rect x="17.5" y="47.5" width="30.0" height="2.5" fill="#023E5B"/>  <rect x="50.0" y="47.5" width="7.5" height="2.5" fill="#023E5B"/>  <rect x="60.0" y="47.5" width="7.5" height="2.5" fill="#023E5B"/>  <rect x="0.0" y="50.0" width="5.0" height="2.5" fill="#023E5B"/>  <rect x="7.5" y="50.0" width="7.5" height="2.5" fill="#023E5B"/>  <rect x="17.5" y="50.0" width="30.0" height="2.5" fill="#023E5B"/>  <rect x="50.0" y="50.0" width="7.5" height="2.5" fill="#023E5B"/>  <rect x="60.0" y="50.0" width="7.5" height="2.5" fill="#023E5B"/>  <rect x="0.0" y="52.5" width="5.0" height="2.5" fill="#023E5B"/>  <rect x="7.5" y="52.5" width="7.5" height="2.5" fill="#023E5B"/>  <rect x="17.5" y="52.5" width="30.0" height="2.5" fill="#023E5B"/>  <rect x="50.0" y="52.5" width="7.5" height="2.5" fill="#023E5B"/>  <rect x="60.0" y="52.5" width="7.5" height="2.5" fill="#023E5B"/>  <rect x="0.0" y="55.0" width="5.0" height="2.5" fill="#023E5B"/>  <rect x="7.5" y="55.0" width="7.5" height="2.5" fill="#023E5B"/>  <rect x="17.5" y="55.0" width="30.0" height="2.5" fill="#023E5B"/>  <rect x="50.0" y="55.0" width="7.5" height="2.5" fill="#023E5B"/>  <rect x="60.0" y="55.0" width="7.5" height="2.5" fill="#023E5B"/>  <rect x="0.0" y="57.5" width="5.0" height="2.5" fill="#023E5B"/>  <rect x="7.5" y="57.5" width="7.5" height="2.5" fill="#023E5B"/>  <rect x="17.5" y="57.5" width="30.0" height="2.5" fill="#023E5B"/>  <rect x="50.0" y="57.5" width="7.5" height="2.5" fill="#023E5B"/>  <rect x="60.0" y="57.5" width="7.5" height="2.5" fill="#023E5B"/>  <rect x="0.0" y="60.0" width="5.0" height="2.5" fill="#023E5B"/>  <rect x="60.0" y="60.0" width="7.5" height="2.5" fill="#023E5B"/>  <rect x="0.0" y="62.5" width="67.5" height="2.5" fill="#023E5B"/>  <rect x="0.0" y="65.0" width="67.5" height="2.5" fill="#023E5B"/>
  <text x="77.5" y="33" font-family="Arial, Helvetica, sans-serif" font-size="22" font-weight="700" fill="#000000">Home Partners</text>
  <text x="77.5" y="61" font-family="Arial, Helvetica, sans-serif" font-size="18" font-weight="400" fill="#000000">of America</text>
</svg>