<?xml version="1.0" encoding="UTF-8"?>
<svg xmlns="http://www.w3.org/2000/svg" viewBox="-4 -4 284 75">
  <path fill="#023E5B" d="M0 0L65 0L65 5L0 5Z M0 60L65 60L65 65L0 65Z M0 5L5 5L5 60L0 60Z M60 5L65 5L65 60L60 60Z M10 10L15 10L15 27.5L10 27.5Z M10 37.5L15 37.5L15 55L10 55Z M52.5 10L57.5 10L57.5 30L52.5 30Z M52.5 37.5L57.5 37.5L57.5 55L52.5 55Z M17.5 10L47.5 10L47.5 25L17.5 25Z M17.5 35L47.5 35L47.5 55L17.5 55Z M10 7.5L12.5 7.5L12.5 10L10 10Z M20 7.5L45 7.5L45 10L20 10Z M52.5 7.5L55 7.5L55 10L52.5 10Z M17.5 25L25 25L25 27.5L17.5 27.5Z M40 25L47.5 25L47.5 27.5L40 27.5Z M10 27.5L12.5 27.5L12.5 30L10 30Z M25 30L40 30L40 32.5L25 32.5Z M20 32.5L47.5 32.5L47.5 35L20 35Z M10 35L12.5 35L12.5 37.5L10 37.5Z M52.5 35L55 35L55 37.5L52.5 37.5Z"/>
  <path fill="#000000" d="M79.55 30V9.96H83.6V17.85H91.53V9.96H95.57V30H91.53V21.24H83.6V30Z"/>
  <path fill="#000000" d="M98.84 22.54Q98.84 20.62 99.79 18.83Q100.73 17.04 102.46 16.1Q104.19 15.15 106.32 15.15Q109.62 15.15 111.72 17.29Q113.83 19.43 113.83 22.7Q113.83 25.99 111.7 28.16Q109.57 30.33 106.35 30.33Q104.35 30.33 102.54 29.43Q100.73 28.52 99.79 26.78Q98.84 25.04 98.84 22.54ZM102.78 22.74Q102.78 24.9 103.8 26.05Q104.83 27.2 106.33 27.2Q107.84 27.2 108.86 26.05Q109.88 24.9 109.88 22.71Q109.88 20.58 108.86 19.43Q107.84 18.28 106.33 18.28Q104.83 18.28 103.8 19.43Q102.78 20.58 102.78 22.74Z"/>
  <path fill="#000000" d="M116.55 15.48H120.09V17.46Q121.99 15.15 124.61 15.15Q126.01 15.15 127.03 15.73Q128.06 16.3 128.71 17.46Q129.67 16.3 130.78 15.73Q131.89 15.15 133.14 15.15Q134.74 15.15 135.85 15.8Q136.96 16.45 137.51 17.71Q137.9 18.64 137.9 20.72V30H134.06V21.7Q134.06 19.54 133.66 18.91Q133.13 18.09 132.02 18.09Q131.22 18.09 130.51 18.58Q129.79 19.08 129.48 20.03Q129.17 20.98 129.17 23.03V30H125.32V22.04Q125.32 19.92 125.12 19.31Q124.91 18.69 124.48 18.39Q124.05 18.09 123.31 18.09Q122.43 18.09 121.71 18.57Q121 19.05 120.7 19.95Q120.39 20.85 120.39 22.95V30H116.55Z"/>
  <path fill="#000000" d="M150.14 25.38 153.97 26.02Q153.23 28.13 151.64 29.23Q150.04 30.33 147.65 30.33Q143.86 30.33 142.04 27.85Q140.61 25.87 140.61 22.85Q140.61 19.24 142.5 17.2Q144.38 15.15 147.27 15.15Q150.51 15.15 152.38 17.29Q154.25 19.43 154.17 23.85H144.55Q144.59 25.56 145.48 26.51Q146.37 27.46 147.69 27.46Q148.59 27.46 149.21 26.96Q149.82 26.47 150.14 25.38ZM150.36 21.5Q150.32 19.83 149.5 18.96Q148.68 18.09 147.5 18.09Q146.24 18.09 145.42 19.01Q144.6 19.92 144.62 21.5Z"/>
  <path fill="#000000" d="M165.11 30V9.96H171.6Q175.29 9.96 176.42 10.26Q178.14 10.71 179.3 12.22Q180.46 13.73 180.46 16.12Q180.46 17.97 179.79 19.23Q179.12 20.48 178.09 21.2Q177.06 21.92 175.99 22.15Q174.54 22.44 171.79 22.44H169.16V30ZM169.16 13.35V19.04H171.37Q173.76 19.04 174.57 18.72Q175.38 18.41 175.83 17.74Q176.29 17.07 176.29 16.18Q176.29 15.08 175.65 14.37Q175.01 13.66 174.02 13.48Q173.3 13.35 171.11 13.35Z"/>
  <path fill="#000000" d="M186.63 19.91 183.14 19.28Q183.73 17.18 185.17 16.16Q186.6 15.15 189.43 15.15Q192 15.15 193.26 15.76Q194.52 16.37 195.03 17.31Q195.54 18.24 195.54 20.74L195.5 25.23Q195.5 27.14 195.69 28.05Q195.87 28.96 196.38 30H192.58Q192.43 29.62 192.21 28.87Q192.11 28.52 192.07 28.41Q191.09 29.37 189.96 29.85Q188.84 30.33 187.57 30.33Q185.33 30.33 184.04 29.11Q182.75 27.89 182.75 26.04Q182.75 24.8 183.33 23.84Q183.92 22.88 184.98 22.36Q186.04 21.85 188.04 21.47Q190.73 20.96 191.77 20.53V20.14Q191.77 19.04 191.22 18.56Q190.68 18.09 189.16 18.09Q188.13 18.09 187.56 18.5Q186.98 18.9 186.63 19.91ZM191.77 23.03Q191.03 23.27 189.43 23.62Q187.83 23.96 187.34 24.29Q186.59 24.82 186.59 25.64Q186.59 26.45 187.19 27.03Q187.79 27.62 188.72 27.62Q189.76 27.62 190.7 26.94Q191.4 26.42 191.62 25.67Q191.77 25.17 191.77 23.79Z"/>
  <path fill="#000000" d="M203.01 30H199.17V15.48H202.73V17.54Q203.65 16.08 204.38 15.62Q205.11 15.15 206.04 15.15Q207.36 15.15 208.57 15.88L207.38 19.23Q206.41 18.6 205.58 18.6Q204.77 18.6 204.21 19.04Q203.65 19.49 203.33 20.65Q203.01 21.81 203.01 25.52Z"/>
  <path fill="#000000" d="M216.88 15.48V18.54H214.26V24.39Q214.26 26.17 214.33 26.47Q214.41 26.76 214.68 26.95Q214.94 27.14 215.33 27.14Q215.86 27.14 216.87 26.77L217.2 29.75Q215.86 30.33 214.16 30.33Q213.12 30.33 212.29 29.98Q211.46 29.63 211.07 29.08Q210.68 28.52 210.53 27.58Q210.4 26.91 210.4 24.87V18.54H208.64V15.48H210.4V12.6L214.26 10.35V15.48Z"/>
  <path fill="#000000" d="M232.76 30H228.92V22.59Q228.92 20.24 228.67 19.55Q228.42 18.86 227.87 18.47Q227.32 18.09 226.54 18.09Q225.54 18.09 224.75 18.64Q223.95 19.19 223.66 20.09Q223.37 20.99 223.37 23.42V30H219.52V15.48H223.09V17.61Q224.99 15.15 227.88 15.15Q229.15 15.15 230.2 15.61Q231.25 16.07 231.79 16.78Q232.33 17.49 232.55 18.39Q232.76 19.29 232.76 20.98Z"/>
  <path fill="#000000" d="M245.06 25.38 248.89 26.02Q248.15 28.13 246.56 29.23Q244.97 30.33 242.57 30.33Q238.79 30.33 236.97 27.85Q235.53 25.87 235.53 22.85Q235.53 19.24 237.42 17.2Q239.31 15.15 242.19 15.15Q245.43 15.15 247.3 17.29Q249.18 19.43 249.1 23.85H239.47Q239.51 25.56 240.4 26.51Q241.29 27.46 242.62 27.46Q243.52 27.46 244.13 26.96Q244.75 26.47 245.06 25.38ZM245.28 21.5Q245.24 19.83 244.42 18.96Q243.6 18.09 242.42 18.09Q241.17 18.09 240.35 19.01Q239.53 19.92 239.54 21.5Z"/>
  <path fill="#000000" d="M255.9 30H252.06V15.48H255.63V17.54Q256.55 16.08 257.28 15.62Q258.01 15.15 258.94 15.15Q260.25 15.15 261.47 15.88L260.28 19.23Q259.31 18.6 258.47 18.6Q257.67 18.6 257.11 19.04Q256.55 19.49 256.23 20.65Q255.9 21.81 255.9 25.52Z"/>
  <path fill="#000000" d="M261.77 25.86 265.62 25.27Q265.87 26.39 266.62 26.97Q267.38 27.55 268.73 27.55Q270.22 27.55 270.97 27.01Q271.48 26.62 271.48 25.98Q271.48 25.54 271.2 25.26Q270.92 24.98 269.92 24.75Q265.27 23.72 264.03 22.88Q262.3 21.7 262.3 19.61Q262.3 17.72 263.79 16.44Q265.28 15.15 268.41 15.15Q271.39 15.15 272.84 16.12Q274.29 17.09 274.84 18.99L271.22 19.66Q270.98 18.82 270.33 18.37Q269.69 17.91 268.48 17.91Q266.96 17.91 266.31 18.34Q265.87 18.64 265.87 19.12Q265.87 19.53 266.25 19.81Q266.77 20.2 269.84 20.89Q272.91 21.59 274.13 22.6Q275.33 23.63 275.33 25.46Q275.33 27.46 273.66 28.89Q272 30.33 268.73 30.33Q265.76 30.33 264.03 29.12Q262.3 27.92 261.77 25.86Z"/>
  <path fill="#000000" d="M78.23 52.3Q78.23 49.13 79.99 47.6Q81.46 46.33 83.58 46.33Q85.93 46.33 87.43 47.88Q88.92 49.42 88.92 52.13Q88.92 54.34 88.26 55.6Q87.6 56.86 86.34 57.56Q85.07 58.26 83.58 58.26Q81.18 58.26 79.71 56.72Q78.23 55.19 78.23 52.3ZM80.22 52.3Q80.22 54.49 81.17 55.58Q82.13 56.67 83.58 56.67Q85.02 56.67 85.98 55.57Q86.93 54.48 86.93 52.23Q86.93 50.12 85.97 49.02Q85.01 47.93 83.58 47.93Q82.13 47.93 81.17 49.02Q80.22 50.1 80.22 52.3Z"/>
  <path fill="#000000" d="M91.65 58V48.1H89.94V46.59H91.65V45.38Q91.65 44.23 91.85 43.67Q92.13 42.92 92.83 42.45Q93.54 41.98 94.81 41.98Q95.62 41.98 96.61 42.18L96.32 43.86Q95.72 43.76 95.18 43.76Q94.3 43.76 93.94 44.13Q93.57 44.51 93.57 45.54V46.59H95.79V48.1H93.57V58Z"/>
  <path fill="#000000" d="M101.93 58 107.98 42.25H110.22L116.67 58H114.29L112.46 53.23H105.87L104.14 58ZM106.47 51.53H111.81L110.17 47.17Q109.42 45.18 109.05 43.91Q108.75 45.42 108.2 46.91Z"/>
  <path fill="#000000" d="M118.08 58V46.59H119.81V48.19Q120.35 47.35 121.24 46.84Q122.13 46.33 123.27 46.33Q124.54 46.33 125.35 46.86Q126.16 47.39 126.5 48.33Q127.85 46.33 130.02 46.33Q131.72 46.33 132.63 47.27Q133.54 48.21 133.54 50.17V58H131.62V50.81Q131.62 49.65 131.43 49.14Q131.24 48.63 130.75 48.32Q130.25 48.01 129.59 48.01Q128.39 48.01 127.59 48.81Q126.8 49.61 126.8 51.37V58H124.86V50.59Q124.86 49.3 124.39 48.65Q123.92 48.01 122.84 48.01Q122.03 48.01 121.33 48.44Q120.64 48.87 120.33 49.7Q120.02 50.52 120.02 52.08V58Z"/>
  <path fill="#000000" d="M144.22 54.33 146.22 54.57Q145.75 56.32 144.47 57.29Q143.19 58.26 141.2 58.26Q138.7 58.26 137.23 56.72Q135.77 55.17 135.77 52.39Q135.77 49.51 137.25 47.92Q138.73 46.33 141.09 46.33Q143.38 46.33 144.83 47.89Q146.28 49.45 146.28 52.27Q146.28 52.45 146.27 52.79H137.76Q137.87 54.67 138.83 55.67Q139.78 56.67 141.21 56.67Q142.28 56.67 143.03 56.11Q143.78 55.55 144.22 54.33ZM137.87 51.2H144.24Q144.11 49.76 143.51 49.04Q142.59 47.92 141.12 47.92Q139.78 47.92 138.88 48.82Q137.97 49.71 137.87 51.2Z"/>
  <path fill="#000000" d="M148.62 58V46.59H150.36V48.32Q151.03 47.11 151.59 46.72Q152.16 46.33 152.83 46.33Q153.81 46.33 154.82 46.96L154.16 48.75Q153.45 48.33 152.74 48.33Q152.1 48.33 151.6 48.71Q151.09 49.09 150.88 49.77Q150.56 50.8 150.56 52.03V58Z"/>
  <path fill="#000000" d="M155.98 44.48V42.25H157.92V44.48ZM155.98 58V46.59H157.92V58Z"/>
  <path fill="#000000" d="M168.3 53.82 170.21 54.07Q169.89 56.03 168.61 57.15Q167.33 58.26 165.46 58.26Q163.12 58.26 161.69 56.73Q160.27 55.2 160.27 52.34Q160.27 50.49 160.88 49.11Q161.49 47.72 162.74 47.03Q164 46.33 165.47 46.33Q167.33 46.33 168.51 47.27Q169.69 48.21 170.02 49.94L168.14 50.23Q167.87 49.08 167.19 48.5Q166.51 47.92 165.54 47.92Q164.08 47.92 163.17 48.97Q162.26 50.02 162.26 52.29Q162.26 54.58 163.14 55.63Q164.02 56.67 165.44 56.67Q166.57 56.67 167.34 55.97Q168.1 55.27 168.3 53.82Z"/>
  <path fill="#000000" d="M179.3 56.59Q178.23 57.51 177.24 57.88Q176.24 58.26 175.1 58.26Q173.22 58.26 172.21 57.34Q171.2 56.42 171.2 54.99Q171.2 54.15 171.59 53.46Q171.97 52.77 172.58 52.35Q173.2 51.93 173.98 51.72Q174.54 51.57 175.69 51.43Q178.04 51.15 179.14 50.76Q179.15 50.36 179.15 50.25Q179.15 49.07 178.61 48.59Q177.86 47.93 176.4 47.93Q175.04 47.93 174.39 48.41Q173.74 48.89 173.43 50.1L171.54 49.85Q171.79 48.63 172.39 47.89Q172.98 47.14 174.09 46.74Q175.21 46.33 176.68 46.33Q178.14 46.33 179.06 46.68Q179.97 47.02 180.4 47.54Q180.83 48.06 181 48.86Q181.1 49.35 181.1 50.64V53.22Q181.1 55.92 181.22 56.63Q181.34 57.34 181.71 58H179.69Q179.39 57.4 179.3 56.59ZM179.14 52.27Q178.09 52.7 175.98 53Q174.79 53.18 174.3 53.39Q173.8 53.61 173.54 54.02Q173.27 54.43 173.27 54.94Q173.27 55.71 173.85 56.23Q174.44 56.74 175.57 56.74Q176.68 56.74 177.55 56.25Q178.42 55.77 178.83 54.92Q179.14 54.26 179.14 52.98Z"/>
</svg>