<?xml version="1.0" encoding="UTF-8"?>
<svg xmlns="http://www.w3.org/2000/svg" viewBox="0 0 295 78">
  <rect x="0.0" y="0.0" width="65.0" height="2.5" fill="#023E5B"/>  <rect x="0.0" y="2.5" width="67.5" height="5.0" fill="#023E5B"/>  <rect x="0.0" y="7.5" width="5.0" height="2.5" fill="#023E5B"/>  <rect x="60.0" y="7.5" width="7.5" height="2.5" fill="#023E5B"/>  <rect x="0.0" y="10.0" width="5.0" height="17.5" fill="#023E5B"/>  <rect x="7.5" y="10.0" width="7.5" height="17.5" fill="#023E5B"/>  <rect x="17.5" y="10.0" width="30.0" height="17.5" fill="#023E5B"/>  <rect x="50.0" y="10.0" width="7.5" height="17.5" fill="#023E5B"/>  <rect x="60.0" y="10.0" width="7.5" height="17.5" fill="#023E5B"/>  <rect x="0.0" y="27.5" width="5.0" height="2.5" fill="#023E5B"/>  <rect x="7.5" y="27.5" width="7.5" height="2.5" fill="#023E5B"/>  <rect x="17.5" y="27.5" width="12.5" height="2.5" fill="#023E5B"/>  <rect x="35.0" y="27.5" width="12.5" height="2.5" fill="#023E5B"/>  <rect x="50.0" y="27.5" width="7.5" height="2.5" fill="#023E5B"/>  <rect x="60.0" y="27.5" width="7.5" height="2.5" fill="#023E5B"/>  <rect x="0.0" y="30.0" width="5.0" height="2.5" fill="#023E5B"/>  <rect x="7.5" y="30.0" width="7.5" height="2.5" fill="#023E5B"/>  <rect x="17.5" y="30.0" width="5.0" height="2.5" fill="#023E5B"/>  <rect x="27.5" y="30.0" width="10.0" height="2.5" fill="#023E5B"/>  <rect x="42.5" y="30.0" width="5.0" height="2.5" fill="#023E5B"/>  <rect x="50.0" y="30.0" width="7.5" height="2.5" fill="#023E5B"/>  <rect x="60.0" y="30.0" width="7.5" height="2.5" fill="#023E5B"/>  <rect x="0.0" y="32.5" width="5.0" height="2.5" fill="#023E5B"/>  <rect x="7.5" y="32.5" width="5.0" height="2.5" fill="#023E5B"/>  <rect x="20.0" y="32.5" width="25.0" height="2.5" fill="#023E5B"/>  <rect x="52.5" y="32.5" width="5.0" height="2.5" fill="#023E5B"/>  <rect x="60.0" y="32.5" width="7.5" height="2.5" fill="#023E5B"/>  <rect x="0.0" y="35.0" width="5.0" height="2.5" fill="#023E5B"/>  <rect x="12.5" y="35.0" width="2.5" height="2.5" fill="#023E5B"/>  <rect x="17.5" y="35.0" width="30.0" height="2.5" fill="#023E5B"/>  <rect x="60.0" y="35.0" width="7.5" height="2.5" fill="#023E5B"/>  <rect x="0.0" y="37.5" width="5.0" height="22.5" fill="#023E5B"/>  <rect x="7.5" y="37.5" width="7.5" height="22.5" fill="#023E5B"/>  <rect x="17.5" y="37.5" width="30.0" height="22.5" fill="#023E5B"/>  <rect x="50.0" y="37.5" width="7.5" height="22.5" fill="#023E5B"/>  <rect x="60.0" y="37.5" width="7.5" height="22.5" fill="#023E5B"/>  <rect x="0.0" y="60.0" width="5.0" height="2.5" fill="#023E5B"/>  <rect x="60.0" y="60.0" width="7.5" height="2.5" fill="#023E5B"/>  <rect x="0.0" y="62.5" width="67.5" height="5.0" fill="#023E5B"/>
  <text x="77.5" y="30" font-family="Arial, Helvetica, sans-serif" font-size="28" font-weight="700" fill="#000000">Home Partners</text>
  <text x="77.5" y="58" font-family="Arial, Helvetica, sans-serif" font-size="22" font-weight="400" fill="#000000">of America</text>
</svg>