<?xml version="1.0" encoding="UTF-8"?>
<svg xmlns="http://www.w3.org/2000/svg" viewBox="0 0 247 47">
  <path fill="#445234" d="M11.61 29.47Q11.61 29.81 11.59 30.05Q11.58 30.28 11.53 30.41Q11.48 30.55 11.41 30.62Q11.34 30.69 11.22 30.69Q11.09 30.69 10.91 30.62Q10.73 30.55 10.51 30.48Q10.28 30.41 10 30.34Q9.72 30.28 9.39 30.28Q9 30.28 8.62 30.44Q8.25 30.59 7.84 30.95Q7.42 31.31 6.97 31.91Q6.52 32.5 5.97 33.36V42.61Q5.97 42.73 5.91 42.82Q5.84 42.91 5.7 42.97Q5.56 43.03 5.31 43.06Q5.06 43.09 4.67 43.09Q4.3 43.09 4.05 43.06Q3.8 43.03 3.65 42.97Q3.5 42.91 3.45 42.82Q3.39 42.73 3.39 42.61V28.55Q3.39 28.42 3.44 28.34Q3.48 28.25 3.62 28.18Q3.77 28.11 3.98 28.09Q4.2 28.06 4.56 28.06Q4.91 28.06 5.13 28.09Q5.36 28.11 5.48 28.18Q5.61 28.25 5.66 28.34Q5.72 28.42 5.72 28.55V30.59Q6.3 29.75 6.8 29.22Q7.31 28.69 7.77 28.38Q8.22 28.08 8.66 27.96Q9.11 27.84 9.56 27.84Q9.77 27.84 10.02 27.87Q10.28 27.89 10.56 27.95Q10.84 28.02 11.07 28.09Q11.3 28.17 11.39 28.25Q11.48 28.33 11.52 28.4Q11.55 28.47 11.57 28.58Q11.59 28.69 11.6 28.9Q11.61 29.11 11.61 29.47Z"/>
  <path fill="#445234" d="M26.55 34.97Q26.55 35.58 26.24 35.84Q25.94 36.09 25.55 36.09H16.33Q16.33 37.27 16.56 38.2Q16.8 39.14 17.34 39.81Q17.89 40.48 18.77 40.84Q19.64 41.2 20.91 41.2Q21.91 41.2 22.69 41.04Q23.47 40.88 24.04 40.67Q24.61 40.47 24.98 40.3Q25.34 40.14 25.53 40.14Q25.64 40.14 25.73 40.2Q25.81 40.25 25.86 40.36Q25.91 40.47 25.93 40.66Q25.95 40.86 25.95 41.14Q25.95 41.34 25.94 41.49Q25.92 41.64 25.9 41.76Q25.88 41.88 25.82 41.97Q25.77 42.06 25.68 42.15Q25.59 42.23 25.17 42.43Q24.75 42.62 24.08 42.81Q23.41 43 22.52 43.15Q21.64 43.3 20.64 43.3Q18.91 43.3 17.6 42.81Q16.3 42.33 15.41 41.38Q14.52 40.42 14.06 38.98Q13.61 37.55 13.61 35.64Q13.61 33.83 14.08 32.38Q14.55 30.94 15.43 29.93Q16.31 28.92 17.56 28.38Q18.81 27.84 20.36 27.84Q22.02 27.84 23.18 28.38Q24.34 28.91 25.09 29.8Q25.84 30.7 26.2 31.91Q26.55 33.12 26.55 34.5ZM23.95 34.2Q24 32.17 23.05 31.02Q22.11 29.86 20.25 29.86Q19.3 29.86 18.58 30.22Q17.86 30.58 17.38 31.17Q16.89 31.77 16.62 32.55Q16.36 33.34 16.33 34.2Z"/>
  <path fill="#445234" d="M41.06 42.62Q41.06 42.81 40.94 42.91Q40.81 43 40.59 43.05Q40.38 43.09 39.95 43.09Q39.55 43.09 39.3 43.05Q39.06 43 38.95 42.91Q38.84 42.81 38.84 42.62V41.22Q37.92 42.2 36.79 42.75Q35.66 43.3 34.39 43.3Q33.28 43.3 32.38 43.01Q31.48 42.72 30.85 42.17Q30.22 41.62 29.87 40.83Q29.52 40.03 29.52 39.02Q29.52 37.83 30 36.95Q30.48 36.08 31.39 35.5Q32.3 34.92 33.61 34.63Q34.92 34.34 36.56 34.34H38.5V33.25Q38.5 32.44 38.33 31.81Q38.16 31.19 37.77 30.77Q37.39 30.36 36.78 30.15Q36.17 29.94 35.28 29.94Q34.33 29.94 33.57 30.16Q32.81 30.39 32.24 30.66Q31.67 30.94 31.29 31.16Q30.91 31.39 30.72 31.39Q30.59 31.39 30.5 31.33Q30.41 31.27 30.34 31.14Q30.27 31.02 30.23 30.82Q30.2 30.62 30.2 30.39Q30.2 30 30.26 29.77Q30.31 29.55 30.52 29.34Q30.73 29.14 31.25 28.87Q31.77 28.59 32.44 28.37Q33.11 28.14 33.91 27.99Q34.7 27.84 35.52 27.84Q37.03 27.84 38.09 28.19Q39.16 28.53 39.81 29.2Q40.47 29.86 40.77 30.84Q41.06 31.83 41.06 33.14ZM38.5 36.2H36.3Q35.23 36.2 34.45 36.38Q33.67 36.56 33.16 36.91Q32.64 37.27 32.4 37.76Q32.16 38.25 32.16 38.89Q32.16 39.98 32.85 40.63Q33.55 41.28 34.8 41.28Q35.81 41.28 36.68 40.77Q37.55 40.25 38.5 39.19Z"/>
  <path fill="#445234" d="M48.38 42.61Q48.38 42.73 48.31 42.82Q48.25 42.91 48.11 42.97Q47.97 43.03 47.72 43.06Q47.47 43.09 47.08 43.09Q46.7 43.09 46.45 43.06Q46.2 43.03 46.05 42.97Q45.91 42.91 45.85 42.82Q45.8 42.73 45.8 42.61V21.73Q45.8 21.61 45.85 21.52Q45.91 21.42 46.05 21.36Q46.2 21.3 46.45 21.27Q46.7 21.23 47.08 21.23Q47.47 21.23 47.72 21.27Q47.97 21.3 48.11 21.36Q48.25 21.42 48.31 21.52Q48.38 21.61 48.38 21.73Z"/>
  <circle cx="74.25" cy="23.5" r="19.5" fill="#F15038"/>
  <path fill="white" d="M82.92 8.64Q82.92 9.42 82.87 9.9Q82.81 10.37 82.7 10.63Q82.6 10.89 82.46 10.99Q82.32 11.08 82.16 11.08Q81.97 11.08 81.74 10.99Q81.51 10.89 81.17 10.78Q80.83 10.67 80.37 10.58Q79.91 10.48 79.28 10.48Q78.55 10.48 78.02 10.71Q77.49 10.94 77.14 11.45Q76.79 11.95 76.62 12.75Q76.46 13.55 76.46 14.72V16.94H80.89Q81.13 16.94 81.33 17.08Q81.54 17.21 81.67 17.53Q81.81 17.84 81.88 18.38Q81.94 18.92 81.94 19.71Q81.94 21.2 81.67 21.84Q81.4 22.48 80.89 22.48H76.46V42.08Q76.46 42.35 76.3 42.55Q76.14 42.76 75.76 42.89Q75.38 43.03 74.7 43.09Q74.02 43.16 73.04 43.16Q72.06 43.16 71.4 43.09Q70.73 43.03 70.34 42.89Q69.95 42.76 69.8 42.55Q69.65 42.35 69.65 42.08V22.48H66.61Q66.09 22.48 65.84 21.84Q65.58 21.2 65.58 19.71Q65.58 18.92 65.65 18.38Q65.71 17.84 65.84 17.53Q65.96 17.21 66.16 17.08Q66.36 16.94 66.64 16.94H69.65V14.91Q69.65 12.44 70.14 10.58Q70.63 8.72 71.67 7.48Q72.72 6.25 74.33 5.62Q75.95 5 78.14 5Q79.2 5 80.15 5.18Q81.1 5.35 81.65 5.56Q82.19 5.76 82.38 5.94Q82.57 6.11 82.69 6.45Q82.81 6.79 82.87 7.32Q82.92 7.85 82.92 8.64Z"/>
  <path fill="#445234" d="M113.22 35.42Q113.22 37.14 112.77 38.59Q112.31 40.03 111.41 41.08Q110.52 42.12 109.16 42.71Q107.81 43.3 106.03 43.3Q104.3 43.3 103.01 42.78Q101.72 42.27 100.86 41.28Q100 40.3 99.58 38.89Q99.16 37.48 99.16 35.7Q99.16 33.98 99.6 32.54Q100.05 31.09 100.95 30.05Q101.84 29 103.19 28.42Q104.53 27.84 106.33 27.84Q108.06 27.84 109.35 28.36Q110.64 28.88 111.5 29.86Q112.36 30.84 112.79 32.25Q113.22 33.66 113.22 35.42ZM110.5 35.59Q110.5 34.45 110.29 33.44Q110.08 32.42 109.59 31.66Q109.11 30.89 108.28 30.45Q107.45 30 106.22 30Q105.08 30 104.26 30.41Q103.44 30.81 102.91 31.55Q102.38 32.3 102.12 33.31Q101.86 34.33 101.86 35.53Q101.86 36.69 102.07 37.7Q102.28 38.72 102.77 39.48Q103.27 40.23 104.09 40.68Q104.92 41.12 106.16 41.12Q107.28 41.12 108.11 40.72Q108.94 40.31 109.47 39.58Q110 38.84 110.25 37.83Q110.5 36.81 110.5 35.59Z"/>
  <path fill="#445234" d="M129.06 42.61Q129.06 42.73 129.01 42.82Q128.95 42.91 128.81 42.97Q128.67 43.03 128.45 43.06Q128.22 43.09 127.89 43.09Q127.53 43.09 127.3 43.06Q127.08 43.03 126.95 42.97Q126.81 42.91 126.77 42.82Q126.72 42.73 126.72 42.61V40.75Q125.52 42.08 124.34 42.69Q123.17 43.3 121.97 43.3Q120.56 43.3 119.6 42.83Q118.64 42.36 118.05 41.55Q117.45 40.75 117.2 39.68Q116.94 38.61 116.94 37.08V28.55Q116.94 28.42 116.99 28.34Q117.05 28.25 117.2 28.18Q117.36 28.11 117.61 28.09Q117.86 28.06 118.23 28.06Q118.61 28.06 118.86 28.09Q119.11 28.11 119.26 28.18Q119.41 28.25 119.47 28.34Q119.53 28.42 119.53 28.55V36.73Q119.53 37.97 119.71 38.71Q119.89 39.45 120.26 39.98Q120.62 40.5 121.19 40.79Q121.75 41.08 122.5 41.08Q123.47 41.08 124.43 40.39Q125.39 39.7 126.47 38.38V28.55Q126.47 28.42 126.52 28.34Q126.58 28.25 126.73 28.18Q126.89 28.11 127.13 28.09Q127.38 28.06 127.77 28.06Q128.14 28.06 128.39 28.09Q128.64 28.11 128.78 28.18Q128.92 28.25 128.99 28.34Q129.06 28.42 129.06 28.55Z"/>
  <path fill="#445234" d="M145.94 42.61Q145.94 42.73 145.88 42.82Q145.81 42.91 145.67 42.97Q145.53 43.03 145.28 43.06Q145.03 43.09 144.66 43.09Q144.27 43.09 144.02 43.06Q143.77 43.03 143.62 42.97Q143.48 42.91 143.42 42.82Q143.36 42.73 143.36 42.61V34.38Q143.36 33.17 143.17 32.44Q142.98 31.7 142.62 31.17Q142.27 30.64 141.7 30.36Q141.12 30.08 140.38 30.08Q139.41 30.08 138.44 30.77Q137.47 31.45 136.41 32.78V42.61Q136.41 42.73 136.34 42.82Q136.28 42.91 136.14 42.97Q136 43.03 135.75 43.06Q135.5 43.09 135.11 43.09Q134.73 43.09 134.48 43.06Q134.23 43.03 134.09 42.97Q133.94 42.91 133.88 42.82Q133.83 42.73 133.83 42.61V28.55Q133.83 28.42 133.88 28.34Q133.92 28.25 134.06 28.18Q134.2 28.11 134.42 28.09Q134.64 28.06 135 28.06Q135.34 28.06 135.57 28.09Q135.8 28.11 135.92 28.18Q136.05 28.25 136.1 28.34Q136.16 28.42 136.16 28.55V30.41Q137.34 29.08 138.52 28.46Q139.7 27.84 140.91 27.84Q142.31 27.84 143.27 28.32Q144.23 28.8 144.83 29.59Q145.42 30.39 145.68 31.46Q145.94 32.53 145.94 34.03Z"/>
  <path fill="#445234" d="M162.69 42.61Q162.69 42.73 162.63 42.83Q162.58 42.92 162.45 42.98Q162.31 43.03 162.09 43.06Q161.88 43.09 161.56 43.09Q161.23 43.09 161.02 43.06Q160.8 43.03 160.66 42.98Q160.52 42.92 160.45 42.83Q160.39 42.73 160.39 42.61V40.75Q159.28 41.95 158.09 42.62Q156.89 43.3 155.47 43.3Q153.92 43.3 152.83 42.7Q151.73 42.09 151.05 41.07Q150.38 40.05 150.06 38.66Q149.75 37.28 149.75 35.75Q149.75 33.94 150.14 32.48Q150.53 31.02 151.3 29.98Q152.06 28.95 153.2 28.4Q154.33 27.84 155.81 27.84Q157.05 27.84 158.07 28.38Q159.09 28.92 160.09 29.97V21.8Q160.09 21.69 160.15 21.59Q160.2 21.48 160.36 21.43Q160.52 21.38 160.76 21.34Q161 21.3 161.38 21.3Q161.77 21.3 162.02 21.34Q162.27 21.38 162.41 21.43Q162.55 21.48 162.62 21.59Q162.69 21.69 162.69 21.8ZM160.09 32.72Q159.05 31.42 158.07 30.74Q157.09 30.06 156.03 30.06Q155.05 30.06 154.36 30.53Q153.67 31 153.24 31.77Q152.81 32.53 152.62 33.5Q152.42 34.47 152.42 35.47Q152.42 36.53 152.59 37.55Q152.75 38.56 153.16 39.35Q153.56 40.14 154.23 40.62Q154.91 41.09 155.92 41.09Q156.44 41.09 156.91 40.95Q157.39 40.81 157.89 40.48Q158.39 40.16 158.94 39.63Q159.48 39.11 160.09 38.34Z"/>
  <path fill="#445234" d="M178.05 42.62Q178.05 42.81 177.92 42.91Q177.8 43 177.58 43.05Q177.36 43.09 176.94 43.09Q176.53 43.09 176.29 43.05Q176.05 43 175.94 42.91Q175.83 42.81 175.83 42.62V41.22Q174.91 42.2 173.77 42.75Q172.64 43.3 171.38 43.3Q170.27 43.3 169.37 43.01Q168.47 42.72 167.84 42.17Q167.2 41.62 166.85 40.83Q166.5 40.03 166.5 39.02Q166.5 37.83 166.98 36.95Q167.47 36.08 168.38 35.5Q169.28 34.92 170.59 34.63Q171.91 34.34 173.55 34.34H175.48V33.25Q175.48 32.44 175.31 31.81Q175.14 31.19 174.76 30.77Q174.38 30.36 173.77 30.15Q173.16 29.94 172.27 29.94Q171.31 29.94 170.55 30.16Q169.8 30.39 169.23 30.66Q168.66 30.94 168.27 31.16Q167.89 31.39 167.7 31.39Q167.58 31.39 167.48 31.33Q167.39 31.27 167.32 31.14Q167.25 31.02 167.22 30.82Q167.19 30.62 167.19 30.39Q167.19 30 167.24 29.77Q167.3 29.55 167.51 29.34Q167.72 29.14 168.23 28.87Q168.75 28.59 169.42 28.37Q170.09 28.14 170.89 27.99Q171.69 27.84 172.5 27.84Q174.02 27.84 175.08 28.19Q176.14 28.53 176.8 29.2Q177.45 29.86 177.75 30.84Q178.05 31.83 178.05 33.14ZM175.48 36.2H173.28Q172.22 36.2 171.44 36.38Q170.66 36.56 170.14 36.91Q169.62 37.27 169.38 37.76Q169.14 38.25 169.14 38.89Q169.14 39.98 169.84 40.63Q170.53 41.28 171.78 41.28Q172.8 41.28 173.66 40.77Q174.53 40.25 175.48 39.19Z"/>
  <path fill="#445234" d="M190.09 41.58Q190.09 42.03 190.03 42.3Q189.97 42.56 189.84 42.69Q189.72 42.81 189.47 42.92Q189.22 43.03 188.9 43.1Q188.58 43.17 188.22 43.22Q187.86 43.27 187.5 43.27Q186.41 43.27 185.62 42.98Q184.84 42.69 184.34 42.1Q183.84 41.52 183.62 40.62Q183.39 39.72 183.39 38.5V30.28H181.42Q181.19 30.28 181.05 30.03Q180.91 29.78 180.91 29.22Q180.91 28.92 180.95 28.72Q180.98 28.52 181.05 28.38Q181.11 28.25 181.21 28.2Q181.31 28.14 181.44 28.14H183.39V24.8Q183.39 24.69 183.45 24.59Q183.5 24.5 183.65 24.43Q183.8 24.36 184.05 24.33Q184.3 24.3 184.67 24.3Q185.06 24.3 185.31 24.33Q185.56 24.36 185.7 24.43Q185.84 24.5 185.91 24.59Q185.97 24.69 185.97 24.8V28.14H189.58Q189.7 28.14 189.8 28.2Q189.89 28.25 189.96 28.38Q190.03 28.52 190.06 28.72Q190.09 28.92 190.09 29.22Q190.09 29.78 189.95 30.03Q189.81 30.28 189.58 30.28H185.97V38.12Q185.97 39.58 186.4 40.32Q186.83 41.06 187.94 41.06Q188.3 41.06 188.58 40.99Q188.86 40.92 189.08 40.84Q189.3 40.77 189.45 40.7Q189.61 40.62 189.73 40.62Q189.81 40.62 189.88 40.66Q189.95 40.7 189.99 40.81Q190.03 40.92 190.06 41.11Q190.09 41.3 190.09 41.58Z"/>
  <path fill="#445234" d="M196.08 42.61Q196.08 42.73 196.02 42.82Q195.95 42.91 195.81 42.97Q195.67 43.03 195.42 43.06Q195.17 43.09 194.78 43.09Q194.41 43.09 194.16 43.06Q193.91 43.03 193.76 42.97Q193.61 42.91 193.55 42.82Q193.5 42.73 193.5 42.61V28.55Q193.5 28.44 193.55 28.34Q193.61 28.25 193.76 28.19Q193.91 28.12 194.16 28.09Q194.41 28.06 194.78 28.06Q195.17 28.06 195.42 28.09Q195.67 28.12 195.81 28.19Q195.95 28.25 196.02 28.34Q196.08 28.44 196.08 28.55ZM196.38 23.8Q196.38 24.7 196.03 25.03Q195.69 25.36 194.77 25.36Q193.86 25.36 193.52 25.04Q193.19 24.72 193.19 23.83Q193.19 22.92 193.53 22.59Q193.88 22.27 194.8 22.27Q195.7 22.27 196.04 22.59Q196.38 22.91 196.38 23.8Z"/>
  <path fill="#445234" d="M213.92 35.42Q213.92 37.14 213.47 38.59Q213.02 40.03 212.12 41.08Q211.22 42.12 209.87 42.71Q208.52 43.3 206.73 43.3Q205 43.3 203.71 42.78Q202.42 42.27 201.56 41.28Q200.7 40.3 200.28 38.89Q199.86 37.48 199.86 35.7Q199.86 33.98 200.3 32.54Q200.75 31.09 201.65 30.05Q202.55 29 203.89 28.42Q205.23 27.84 207.03 27.84Q208.77 27.84 210.05 28.36Q211.34 28.88 212.2 29.86Q213.06 30.84 213.49 32.25Q213.92 33.66 213.92 35.42ZM211.2 35.59Q211.2 34.45 210.99 33.44Q210.78 32.42 210.3 31.66Q209.81 30.89 208.98 30.45Q208.16 30 206.92 30Q205.78 30 204.96 30.41Q204.14 30.81 203.61 31.55Q203.08 32.3 202.82 33.31Q202.56 34.33 202.56 35.53Q202.56 36.69 202.77 37.7Q202.98 38.72 203.48 39.48Q203.97 40.23 204.8 40.68Q205.62 41.12 206.86 41.12Q207.98 41.12 208.81 40.72Q209.64 40.31 210.17 39.58Q210.7 38.84 210.95 37.83Q211.2 36.81 211.2 35.59Z"/>
  <path fill="#445234" d="M229.83 42.61Q229.83 42.73 229.77 42.82Q229.7 42.91 229.56 42.97Q229.42 43.03 229.17 43.06Q228.92 43.09 228.55 43.09Q228.16 43.09 227.91 43.06Q227.66 43.03 227.52 42.97Q227.38 42.91 227.31 42.82Q227.25 42.73 227.25 42.61V34.38Q227.25 33.17 227.06 32.44Q226.88 31.7 226.52 31.17Q226.16 30.64 225.59 30.36Q225.02 30.08 224.27 30.08Q223.3 30.08 222.33 30.77Q221.36 31.45 220.3 32.78V42.61Q220.3 42.73 220.23 42.82Q220.17 42.91 220.03 42.97Q219.89 43.03 219.64 43.06Q219.39 43.09 219 43.09Q218.62 43.09 218.38 43.06Q218.12 43.03 217.98 42.97Q217.83 42.91 217.77 42.82Q217.72 42.73 217.72 42.61V28.55Q217.72 28.42 217.77 28.34Q217.81 28.25 217.95 28.18Q218.09 28.11 218.31 28.09Q218.53 28.06 218.89 28.06Q219.23 28.06 219.46 28.09Q219.69 28.11 219.81 28.18Q219.94 28.25 219.99 28.34Q220.05 28.42 220.05 28.55V30.41Q221.23 29.08 222.41 28.46Q223.59 27.84 224.8 27.84Q226.2 27.84 227.16 28.32Q228.12 28.8 228.72 29.59Q229.31 30.39 229.57 31.46Q229.83 32.53 229.83 34.03Z"/>
  <path fill="#445234" d="M243.36 38.78Q243.36 39.86 242.96 40.7Q242.56 41.55 241.83 42.12Q241.09 42.7 240.08 43Q239.06 43.3 237.84 43.3Q237.09 43.3 236.41 43.18Q235.73 43.06 235.2 42.88Q234.66 42.7 234.28 42.51Q233.91 42.31 233.73 42.16Q233.56 42 233.48 41.72Q233.41 41.44 233.41 40.95Q233.41 40.66 233.44 40.45Q233.47 40.25 233.52 40.12Q233.56 40 233.65 39.95Q233.73 39.89 233.84 39.89Q234.02 39.89 234.35 40.1Q234.69 40.31 235.18 40.56Q235.67 40.81 236.34 41.02Q237.02 41.23 237.89 41.23Q238.55 41.23 239.08 41.09Q239.61 40.95 240 40.68Q240.39 40.41 240.6 39.98Q240.81 39.56 240.81 38.98Q240.81 38.39 240.51 37.98Q240.2 37.58 239.7 37.27Q239.2 36.95 238.58 36.71Q237.95 36.47 237.29 36.2Q236.62 35.94 235.99 35.6Q235.36 35.27 234.86 34.78Q234.36 34.3 234.05 33.62Q233.75 32.95 233.75 32.02Q233.75 31.19 234.07 30.43Q234.39 29.67 235.03 29.1Q235.67 28.53 236.63 28.19Q237.59 27.84 238.88 27.84Q239.44 27.84 240 27.94Q240.56 28.03 241.02 28.17Q241.47 28.31 241.79 28.48Q242.11 28.64 242.27 28.77Q242.44 28.89 242.49 28.98Q242.55 29.08 242.57 29.2Q242.59 29.31 242.62 29.48Q242.64 29.66 242.64 29.91Q242.64 30.17 242.62 30.37Q242.59 30.56 242.54 30.69Q242.48 30.81 242.41 30.87Q242.33 30.92 242.23 30.92Q242.09 30.92 241.83 30.75Q241.56 30.58 241.14 30.38Q240.72 30.19 240.15 30.02Q239.58 29.84 238.84 29.84Q238.19 29.84 237.69 29.99Q237.19 30.14 236.87 30.41Q236.55 30.69 236.38 31.06Q236.22 31.44 236.22 31.88Q236.22 32.48 236.53 32.9Q236.84 33.31 237.34 33.62Q237.84 33.94 238.48 34.19Q239.12 34.44 239.79 34.7Q240.45 34.97 241.1 35.3Q241.75 35.62 242.25 36.09Q242.75 36.56 243.05 37.22Q243.36 37.88 243.36 38.78Z"/>
</svg>