<?xml version="1.0" encoding="UTF-8"?>
<svg xmlns="http://www.w3.org/2000/svg" viewBox="0 0 193 47">
  <path fill="#445234" d="M8.96 32.85Q8.96 33.11 8.95 33.29Q8.93 33.46 8.9 33.56Q8.86 33.66 8.81 33.71Q8.76 33.77 8.66 33.77Q8.57 33.77 8.44 33.71Q8.3 33.66 8.13 33.61Q7.96 33.55 7.75 33.51Q7.54 33.46 7.29 33.46Q7 33.46 6.72 33.58Q6.44 33.7 6.13 33.96Q5.82 34.23 5.48 34.68Q5.14 35.12 4.73 35.77V42.71Q4.73 42.8 4.68 42.87Q4.63 42.93 4.53 42.98Q4.42 43.02 4.23 43.05Q4.05 43.07 3.75 43.07Q3.47 43.07 3.29 43.05Q3.1 43.02 2.99 42.98Q2.88 42.93 2.83 42.87Q2.79 42.8 2.79 42.71V32.16Q2.79 32.07 2.83 32Q2.86 31.94 2.97 31.88Q3.07 31.83 3.24 31.81Q3.4 31.8 3.67 31.8Q3.93 31.8 4.1 31.81Q4.27 31.83 4.36 31.88Q4.46 31.94 4.5 32Q4.54 32.07 4.54 32.16V33.7Q4.97 33.06 5.35 32.66Q5.73 32.27 6.07 32.04Q6.41 31.81 6.75 31.72Q7.08 31.63 7.42 31.63Q7.57 31.63 7.77 31.65Q7.96 31.67 8.17 31.71Q8.38 31.76 8.55 31.82Q8.72 31.88 8.79 31.94Q8.86 32 8.89 32.05Q8.91 32.1 8.93 32.18Q8.95 32.27 8.95 32.42Q8.96 32.58 8.96 32.85Z"/>
  <path fill="#445234" d="M20.16 36.98Q20.16 37.43 19.93 37.63Q19.7 37.82 19.41 37.82H12.5Q12.5 38.7 12.67 39.4Q12.85 40.11 13.26 40.61Q13.67 41.11 14.32 41.38Q14.98 41.65 15.93 41.65Q16.68 41.65 17.27 41.53Q17.85 41.41 18.28 41.25Q18.71 41.1 18.98 40.98Q19.26 40.86 19.4 40.86Q19.48 40.86 19.54 40.9Q19.61 40.94 19.64 41.02Q19.68 41.1 19.7 41.25Q19.71 41.39 19.71 41.61Q19.71 41.76 19.7 41.87Q19.69 41.98 19.67 42.07Q19.66 42.16 19.62 42.23Q19.57 42.3 19.51 42.36Q19.45 42.43 19.13 42.57Q18.81 42.72 18.31 42.86Q17.8 43 17.14 43.11Q16.48 43.22 15.73 43.22Q14.43 43.22 13.45 42.86Q12.47 42.5 11.8 41.78Q11.14 41.07 10.8 39.99Q10.46 38.91 10.46 37.48Q10.46 36.12 10.81 35.04Q11.16 33.95 11.82 33.2Q12.48 32.44 13.42 32.04Q14.36 31.63 15.52 31.63Q16.76 31.63 17.63 32.03Q18.51 32.43 19.07 33.1Q19.63 33.78 19.9 34.69Q20.16 35.59 20.16 36.62ZM18.21 36.4Q18.25 34.88 17.54 34.01Q16.83 33.14 15.44 33.14Q14.72 33.14 14.18 33.41Q13.64 33.68 13.28 34.13Q12.92 34.57 12.72 35.17Q12.52 35.76 12.5 36.4Z"/>
  <path fill="#445234" d="M31.05 42.72Q31.05 42.86 30.95 42.93Q30.86 43 30.7 43.04Q30.53 43.07 30.21 43.07Q29.91 43.07 29.73 43.04Q29.55 43 29.46 42.93Q29.38 42.86 29.38 42.72V41.66Q28.69 42.4 27.84 42.81Q26.99 43.22 26.04 43.22Q25.21 43.22 24.54 43.01Q23.86 42.79 23.39 42.38Q22.91 41.97 22.65 41.37Q22.39 40.77 22.39 40.01Q22.39 39.12 22.75 38.46Q23.11 37.81 23.79 37.38Q24.47 36.94 25.46 36.72Q26.44 36.51 27.67 36.51H29.12V35.69Q29.12 35.08 29 34.61Q28.87 34.14 28.58 33.83Q28.29 33.52 27.84 33.36Q27.38 33.2 26.71 33.2Q26 33.2 25.43 33.37Q24.86 33.54 24.43 33.75Q24 33.95 23.72 34.12Q23.43 34.29 23.29 34.29Q23.2 34.29 23.12 34.25Q23.05 34.2 23 34.11Q22.95 34.01 22.93 33.87Q22.9 33.72 22.9 33.54Q22.9 33.25 22.94 33.08Q22.98 32.91 23.14 32.76Q23.3 32.61 23.69 32.4Q24.07 32.2 24.58 32.03Q25.08 31.86 25.68 31.74Q26.28 31.63 26.89 31.63Q28.02 31.63 28.82 31.89Q29.62 32.15 30.11 32.65Q30.6 33.14 30.82 33.88Q31.05 34.62 31.05 35.61ZM29.12 37.9H27.47Q26.68 37.9 26.09 38.04Q25.5 38.17 25.12 38.44Q24.73 38.7 24.55 39.07Q24.37 39.44 24.37 39.92Q24.37 40.74 24.89 41.22Q25.41 41.71 26.35 41.71Q27.11 41.71 27.76 41.32Q28.41 40.94 29.12 40.14Z"/>
  <path fill="#445234" d="M36.53 42.71Q36.53 42.8 36.48 42.87Q36.44 42.93 36.33 42.98Q36.23 43.02 36.04 43.05Q35.85 43.07 35.56 43.07Q35.28 43.07 35.09 43.05Q34.9 43.02 34.79 42.98Q34.68 42.93 34.64 42.87Q34.6 42.8 34.6 42.71V27.05Q34.6 26.96 34.64 26.89Q34.68 26.82 34.79 26.77Q34.9 26.72 35.09 26.7Q35.28 26.68 35.56 26.68Q35.85 26.68 36.04 26.7Q36.23 26.72 36.33 26.77Q36.44 26.82 36.48 26.89Q36.53 26.96 36.53 27.05Z"/>
  <circle cx="60.0" cy="23.5" r="19.5" fill="#F15038"/>
  <path fill="white" d="M68.67 8.64Q68.67 9.42 68.62 9.9Q68.56 10.37 68.45 10.63Q68.35 10.89 68.21 10.99Q68.07 11.08 67.91 11.08Q67.72 11.08 67.49 10.99Q67.26 10.89 66.92 10.78Q66.58 10.67 66.12 10.58Q65.66 10.48 65.03 10.48Q64.3 10.48 63.77 10.71Q63.24 10.94 62.89 11.45Q62.54 11.95 62.37 12.75Q62.21 13.55 62.21 14.72V16.94H66.64Q66.88 16.94 67.08 17.08Q67.29 17.21 67.42 17.53Q67.56 17.84 67.63 18.38Q67.69 18.92 67.69 19.71Q67.69 21.2 67.42 21.84Q67.15 22.48 66.64 22.48H62.21V42.08Q62.21 42.35 62.05 42.55Q61.89 42.76 61.51 42.89Q61.13 43.03 60.45 43.09Q59.77 43.16 58.79 43.16Q57.81 43.16 57.15 43.09Q56.48 43.03 56.09 42.89Q55.7 42.76 55.55 42.55Q55.4 42.35 55.4 42.08V22.48H52.36Q51.84 22.48 51.59 21.84Q51.33 21.2 51.33 19.71Q51.33 18.92 51.4 18.38Q51.46 17.84 51.59 17.53Q51.71 17.21 51.91 17.08Q52.11 16.94 52.39 16.94H55.4V14.91Q55.4 12.44 55.89 10.58Q56.38 8.72 57.42 7.48Q58.47 6.25 60.08 5.62Q61.7 5 63.89 5Q64.95 5 65.9 5.18Q66.85 5.35 67.4 5.56Q67.94 5.76 68.13 5.94Q68.32 6.11 68.44 6.45Q68.56 6.79 68.62 7.32Q68.67 7.85 68.67 8.64Z"/>
  <path fill="#445234" d="M93.6 37.32Q93.6 38.61 93.26 39.69Q92.92 40.77 92.25 41.56Q91.57 42.34 90.56 42.78Q89.55 43.22 88.21 43.22Q86.91 43.22 85.94 42.84Q84.98 42.45 84.33 41.71Q83.69 40.97 83.37 39.92Q83.05 38.86 83.05 37.53Q83.05 36.24 83.39 35.15Q83.72 34.07 84.4 33.29Q85.07 32.5 86.08 32.07Q87.09 31.63 88.43 31.63Q89.73 31.63 90.7 32.02Q91.67 32.41 92.31 33.14Q92.96 33.88 93.28 34.94Q93.6 35.99 93.6 37.32ZM91.56 37.45Q91.56 36.59 91.4 35.83Q91.25 35.07 90.88 34.49Q90.52 33.92 89.9 33.58Q89.28 33.25 88.35 33.25Q87.5 33.25 86.88 33.55Q86.27 33.86 85.87 34.42Q85.47 34.97 85.28 35.73Q85.08 36.5 85.08 37.4Q85.08 38.27 85.24 39.03Q85.4 39.79 85.77 40.36Q86.14 40.93 86.76 41.26Q87.38 41.59 88.3 41.59Q89.15 41.59 89.77 41.29Q90.39 40.98 90.79 40.43Q91.19 39.88 91.38 39.12Q91.56 38.36 91.56 37.45Z"/>
  <path fill="#445234" d="M105.48 42.71Q105.48 42.8 105.44 42.87Q105.4 42.93 105.3 42.98Q105.19 43.02 105.02 43.05Q104.85 43.07 104.61 43.07Q104.34 43.07 104.17 43.05Q104 43.02 103.9 42.98Q103.8 42.93 103.76 42.87Q103.73 42.8 103.73 42.71V41.31Q102.82 42.31 101.95 42.77Q101.07 43.22 100.16 43.22Q99.11 43.22 98.39 42.87Q97.67 42.52 97.22 41.92Q96.78 41.31 96.58 40.51Q96.39 39.71 96.39 38.56V32.16Q96.39 32.07 96.43 32Q96.47 31.94 96.59 31.88Q96.71 31.83 96.89 31.81Q97.08 31.8 97.36 31.8Q97.64 31.8 97.83 31.81Q98.02 31.83 98.13 31.88Q98.24 31.94 98.29 32Q98.34 32.07 98.34 32.16V38.3Q98.34 39.23 98.47 39.78Q98.61 40.34 98.88 40.73Q99.16 41.12 99.58 41.34Q100 41.56 100.56 41.56Q101.29 41.56 102.01 41.04Q102.73 40.53 103.54 39.53V32.16Q103.54 32.07 103.58 32Q103.62 31.94 103.74 31.88Q103.86 31.83 104.04 31.81Q104.22 31.8 104.51 31.8Q104.79 31.8 104.98 31.81Q105.17 31.83 105.27 31.88Q105.38 31.94 105.43 32Q105.48 32.07 105.48 32.16Z"/>
  <path fill="#445234" d="M118.14 42.71Q118.14 42.8 118.09 42.87Q118.05 42.93 117.94 42.98Q117.84 43.02 117.65 43.05Q117.46 43.07 117.18 43.07Q116.89 43.07 116.7 43.05Q116.51 43.02 116.41 42.98Q116.3 42.93 116.25 42.87Q116.21 42.8 116.21 42.71V36.53Q116.21 35.63 116.07 35.08Q115.93 34.53 115.66 34.13Q115.39 33.73 114.96 33.52Q114.53 33.31 113.97 33.31Q113.24 33.31 112.52 33.82Q111.79 34.34 110.99 35.34V42.71Q110.99 42.8 110.95 42.87Q110.9 42.93 110.79 42.98Q110.69 43.02 110.5 43.05Q110.31 43.07 110.02 43.07Q109.74 43.07 109.55 43.05Q109.36 43.02 109.25 42.98Q109.14 42.93 109.1 42.87Q109.06 42.8 109.06 42.71V32.16Q109.06 32.07 109.09 32Q109.13 31.94 109.23 31.88Q109.34 31.83 109.5 31.81Q109.67 31.8 109.94 31.8Q110.2 31.8 110.37 31.81Q110.54 31.83 110.63 31.88Q110.72 31.94 110.76 32Q110.8 32.07 110.8 32.16V33.55Q111.7 32.56 112.58 32.1Q113.46 31.63 114.37 31.63Q115.42 31.63 116.14 31.99Q116.86 32.35 117.31 32.95Q117.75 33.54 117.95 34.35Q118.14 35.15 118.14 36.27Z"/>
  <path fill="#445234" d="M130.7 42.71Q130.7 42.8 130.66 42.87Q130.62 42.94 130.52 42.98Q130.42 43.02 130.26 43.05Q130.09 43.07 129.86 43.07Q129.61 43.07 129.45 43.05Q129.29 43.02 129.18 42.98Q129.07 42.94 129.03 42.87Q128.98 42.8 128.98 42.71V41.31Q128.15 42.21 127.25 42.72Q126.36 43.22 125.29 43.22Q124.13 43.22 123.31 42.77Q122.49 42.32 121.98 41.55Q121.47 40.79 121.23 39.75Q121 38.71 121 37.56Q121 36.2 121.29 35.11Q121.59 34.01 122.16 33.24Q122.73 32.46 123.58 32.05Q124.43 31.63 125.55 31.63Q126.47 31.63 127.24 32.04Q128.01 32.44 128.76 33.23V27.1Q128.76 27.02 128.8 26.94Q128.84 26.86 128.96 26.82Q129.07 26.78 129.26 26.75Q129.44 26.72 129.72 26.72Q130.01 26.72 130.2 26.75Q130.39 26.78 130.49 26.82Q130.6 26.86 130.65 26.94Q130.7 27.02 130.7 27.1ZM128.76 35.29Q127.97 34.32 127.24 33.81Q126.51 33.3 125.71 33.3Q124.97 33.3 124.46 33.65Q123.94 34 123.62 34.57Q123.3 35.15 123.15 35.88Q123 36.6 123 37.35Q123 38.15 123.13 38.91Q123.25 39.67 123.55 40.26Q123.86 40.86 124.36 41.21Q124.87 41.57 125.63 41.57Q126.02 41.57 126.37 41.46Q126.73 41.36 127.11 41.11Q127.48 40.87 127.89 40.47Q128.3 40.08 128.76 39.51Z"/>
  <path fill="#445234" d="M142.22 42.72Q142.22 42.86 142.13 42.93Q142.04 43 141.87 43.04Q141.71 43.07 141.39 43.07Q141.09 43.07 140.9 43.04Q140.72 43 140.64 42.93Q140.56 42.86 140.56 42.72V41.66Q139.87 42.4 139.02 42.81Q138.17 43.22 137.22 43.22Q136.39 43.22 135.71 43.01Q135.04 42.79 134.56 42.38Q134.09 41.97 133.83 41.37Q133.56 40.77 133.56 40.01Q133.56 39.12 133.93 38.46Q134.29 37.81 134.97 37.38Q135.65 36.94 136.63 36.72Q137.62 36.51 138.85 36.51H140.3V35.69Q140.3 35.08 140.17 34.61Q140.04 34.14 139.76 33.83Q139.47 33.52 139.01 33.36Q138.55 33.2 137.89 33.2Q137.17 33.2 136.6 33.37Q136.04 33.54 135.61 33.75Q135.18 33.95 134.89 34.12Q134.61 34.29 134.46 34.29Q134.37 34.29 134.3 34.25Q134.23 34.2 134.18 34.11Q134.12 34.01 134.1 33.87Q134.08 33.72 134.08 33.54Q134.08 33.25 134.12 33.08Q134.16 32.91 134.32 32.76Q134.48 32.61 134.86 32.4Q135.25 32.2 135.75 32.03Q136.26 31.86 136.86 31.74Q137.45 31.63 138.06 31.63Q139.2 31.63 140 31.89Q140.79 32.15 141.29 32.65Q141.78 33.14 142 33.88Q142.22 34.62 142.22 35.61ZM140.3 37.9H138.65Q137.85 37.9 137.27 38.04Q136.68 38.17 136.29 38.44Q135.91 38.7 135.72 39.07Q135.54 39.44 135.54 39.92Q135.54 40.74 136.06 41.22Q136.59 41.71 137.52 41.71Q138.29 41.71 138.94 41.32Q139.59 40.94 140.3 40.14Z"/>
  <path fill="#445234" d="M151.26 41.93Q151.26 42.27 151.21 42.47Q151.16 42.67 151.07 42.77Q150.98 42.86 150.79 42.94Q150.6 43.02 150.36 43.08Q150.12 43.13 149.85 43.16Q149.58 43.2 149.31 43.2Q148.49 43.2 147.91 42.98Q147.32 42.77 146.95 42.33Q146.57 41.89 146.4 41.21Q146.23 40.54 146.23 39.62V33.46H144.75Q144.58 33.46 144.47 33.27Q144.37 33.09 144.37 32.66Q144.37 32.44 144.4 32.29Q144.43 32.14 144.47 32.04Q144.52 31.94 144.6 31.9Q144.67 31.86 144.77 31.86H146.23V29.35Q146.23 29.27 146.27 29.2Q146.31 29.12 146.42 29.07Q146.54 29.02 146.72 29Q146.91 28.97 147.19 28.97Q147.48 28.97 147.67 29Q147.86 29.02 147.96 29.07Q148.07 29.12 148.12 29.2Q148.16 29.27 148.16 29.35V31.86H150.87Q150.96 31.86 151.04 31.9Q151.11 31.94 151.16 32.04Q151.21 32.14 151.23 32.29Q151.26 32.44 151.26 32.66Q151.26 33.09 151.15 33.27Q151.05 33.46 150.87 33.46H148.16V39.34Q148.16 40.43 148.49 40.99Q148.81 41.55 149.64 41.55Q149.91 41.55 150.12 41.49Q150.33 41.44 150.5 41.38Q150.66 41.32 150.78 41.27Q150.89 41.22 150.99 41.22Q151.05 41.22 151.1 41.25Q151.15 41.28 151.18 41.36Q151.21 41.44 151.23 41.58Q151.26 41.72 151.26 41.93Z"/>
  <path fill="#445234" d="M155.75 42.71Q155.75 42.8 155.7 42.87Q155.65 42.93 155.55 42.98Q155.44 43.02 155.25 43.05Q155.07 43.07 154.77 43.07Q154.49 43.07 154.3 43.05Q154.12 43.02 154.01 42.98Q153.89 42.93 153.85 42.87Q153.81 42.8 153.81 42.71V32.16Q153.81 32.08 153.85 32.01Q153.89 31.94 154.01 31.89Q154.12 31.84 154.3 31.82Q154.49 31.8 154.77 31.8Q155.07 31.8 155.25 31.82Q155.44 31.84 155.55 31.89Q155.65 31.94 155.7 32.01Q155.75 32.08 155.75 32.16ZM155.97 28.6Q155.97 29.28 155.71 29.52Q155.45 29.77 154.76 29.77Q154.08 29.77 153.83 29.53Q153.58 29.29 153.58 28.62Q153.58 27.94 153.84 27.7Q154.09 27.45 154.79 27.45Q155.46 27.45 155.72 27.69Q155.97 27.93 155.97 28.6Z"/>
  <path fill="#445234" d="M169.13 37.32Q169.13 38.61 168.79 39.69Q168.45 40.77 167.78 41.56Q167.1 42.34 166.09 42.78Q165.07 43.22 163.74 43.22Q162.44 43.22 161.47 42.84Q160.5 42.45 159.86 41.71Q159.21 40.97 158.9 39.92Q158.58 38.86 158.58 37.53Q158.58 36.24 158.92 35.15Q159.25 34.07 159.92 33.29Q160.6 32.5 161.61 32.07Q162.61 31.63 163.96 31.63Q165.26 31.63 166.23 32.02Q167.2 32.41 167.84 33.14Q168.48 33.88 168.81 34.94Q169.13 35.99 169.13 37.32ZM167.09 37.45Q167.09 36.59 166.93 35.83Q166.77 35.07 166.41 34.49Q166.05 33.92 165.43 33.58Q164.8 33.25 163.88 33.25Q163.02 33.25 162.41 33.55Q161.79 33.86 161.39 34.42Q161 34.97 160.8 35.73Q160.61 36.5 160.61 37.4Q160.61 38.27 160.77 39.03Q160.93 39.79 161.29 40.36Q161.66 40.93 162.29 41.26Q162.91 41.59 163.83 41.59Q164.68 41.59 165.3 41.29Q165.92 40.98 166.32 40.43Q166.71 39.88 166.9 39.12Q167.09 38.36 167.09 37.45Z"/>
  <path fill="#445234" d="M181.06 42.71Q181.06 42.8 181.01 42.87Q180.96 42.93 180.86 42.98Q180.75 43.02 180.57 43.05Q180.38 43.07 180.1 43.07Q179.8 43.07 179.62 43.05Q179.43 43.02 179.32 42.98Q179.22 42.93 179.17 42.87Q179.12 42.8 179.12 42.71V36.53Q179.12 35.63 178.98 35.08Q178.84 34.53 178.57 34.13Q178.3 33.73 177.88 33.52Q177.45 33.31 176.89 33.31Q176.16 33.31 175.43 33.82Q174.71 34.34 173.91 35.34V42.71Q173.91 42.8 173.86 42.87Q173.82 42.93 173.71 42.98Q173.61 43.02 173.42 43.05Q173.23 43.07 172.94 43.07Q172.66 43.07 172.47 43.05Q172.28 43.02 172.17 42.98Q172.06 42.93 172.02 42.87Q171.98 42.8 171.98 42.71V32.16Q171.98 32.07 172.01 32Q172.05 31.94 172.15 31.88Q172.26 31.83 172.42 31.81Q172.59 31.8 172.86 31.8Q173.11 31.8 173.28 31.81Q173.45 31.83 173.55 31.88Q173.64 31.94 173.68 32Q173.72 32.07 173.72 32.16V33.55Q174.61 32.56 175.5 32.1Q176.38 31.63 177.29 31.63Q178.34 31.63 179.06 31.99Q179.78 32.35 180.23 32.95Q180.67 33.54 180.87 34.35Q181.06 35.15 181.06 36.27Z"/>
  <path fill="#445234" d="M191.21 39.84Q191.21 40.64 190.91 41.28Q190.61 41.91 190.06 42.34Q189.51 42.78 188.75 43Q187.98 43.22 187.07 43.22Q186.51 43.22 186 43.13Q185.49 43.05 185.08 42.91Q184.68 42.78 184.4 42.63Q184.12 42.48 183.99 42.37Q183.86 42.25 183.8 42.04Q183.74 41.83 183.74 41.46Q183.74 41.24 183.77 41.09Q183.79 40.94 183.82 40.84Q183.86 40.75 183.92 40.71Q183.99 40.67 184.07 40.67Q184.2 40.67 184.45 40.83Q184.7 40.98 185.07 41.17Q185.44 41.36 185.95 41.52Q186.45 41.68 187.11 41.68Q187.6 41.68 188 41.57Q188.39 41.46 188.69 41.26Q188.98 41.05 189.14 40.74Q189.3 40.42 189.3 39.99Q189.3 39.54 189.07 39.24Q188.84 38.93 188.46 38.7Q188.09 38.46 187.62 38.28Q187.15 38.1 186.65 37.9Q186.16 37.7 185.68 37.45Q185.21 37.2 184.83 36.84Q184.46 36.47 184.23 35.97Q184 35.46 184 34.76Q184 34.14 184.24 33.57Q184.48 33 184.96 32.58Q185.44 32.15 186.16 31.89Q186.88 31.63 187.84 31.63Q188.27 31.63 188.69 31.7Q189.11 31.77 189.45 31.88Q189.79 31.98 190.03 32.11Q190.27 32.23 190.39 32.32Q190.52 32.42 190.56 32.49Q190.6 32.56 190.62 32.65Q190.63 32.73 190.65 32.86Q190.67 32.99 190.67 33.18Q190.67 33.38 190.65 33.53Q190.63 33.67 190.59 33.77Q190.55 33.86 190.49 33.9Q190.43 33.94 190.36 33.94Q190.26 33.94 190.06 33.81Q189.86 33.68 189.54 33.54Q189.23 33.39 188.8 33.26Q188.37 33.13 187.82 33.13Q187.33 33.13 186.95 33.24Q186.58 33.36 186.34 33.56Q186.1 33.77 185.97 34.05Q185.85 34.33 185.85 34.66Q185.85 35.11 186.09 35.42Q186.32 35.73 186.7 35.97Q187.07 36.2 187.55 36.39Q188.03 36.58 188.53 36.78Q189.03 36.98 189.51 37.22Q190 37.47 190.38 37.82Q190.75 38.17 190.98 38.66Q191.21 39.16 191.21 39.84Z"/>
</svg>